<svg id="Layer_1" xmlns="http://www.w3.org/2000/svg" viewBox="0 0 96 26"><style>.st0{fill:#fff}</style><path class="st0" d="M18.28 15.36l-2-2 2-2c1.1-1.1 2.9-1.1 4 0s1.1 2.9 0 4c-1.11 1.1-2.9 1.1-4 0m4.28-5.13a4.412 4.412 0 0 0-6.25 0l-3.12 3.12 3.12 3.12a4.412 4.412 0 0 0 6.25 0c1.73-1.71 1.73-4.51 0-6.24m-7.92-2.51l-2 2-2-2a2.819 2.819 0 0 1 0-4 2.819 2.819 0 0 1 4 0 2.819 2.819 0 0 1 0 4M9.52 3.44a4.412 4.412 0 0 0 0 6.25l3.12 3.12 3.12-3.12a4.412 4.412 0 0 0 0-6.25 4.4 4.4 0 0 0-6.24 0m-2.51 7.92l2 2-2 2a2.819 2.819 0 0 1-4 0c-1.1-1.1-1.1-2.89 0-4a2.819 2.819 0 0 1 4 0m-4.28 5.12a4.412 4.412 0 0 0 6.25 0l3.12-3.12-3.12-3.12a4.412 4.412 0 0 0-6.25 0 4.4 4.4 0 0 0 0 6.24m7.91 2.51l2-2 2 2c1.1 1.1 1.1 2.9 0 4s-2.9 1.1-4 0-1.1-2.89 0-4m5.13 4.28a4.412 4.412 0 0 0 0-6.25l-3.12-3.12-3.12 3.12a4.412 4.412 0 0 0 0 6.25c1.71 1.73 4.51 1.73 6.24 0m17.19-9.16l-1.23-3.01-1.24 3.01h2.47zm-.24-5.4l3.81 8.96a.23.23 0 0 1-.21.33h-1.78l-.85-2.08h-3.93L28.92 18h-1.73a.24.24 0 0 1-.22-.33l3.81-8.96h1.94zm4.38 4.67v-.03c0-2.64 2.06-4.8 4.87-4.8 1.67 0 2.68.45 3.65 1.28l-1.14 1.37c-.08.1-.23.11-.33.03-.65-.51-1.26-.8-2.25-.8-1.49 0-2.67 1.31-2.67 2.89v.03c0 1.7 1.17 2.95 2.81 2.95.74 0 1.41-.19 1.92-.56v-1.33H41.9v-1.76h4.03v4.03c-.96.81-2.27 1.47-3.97 1.47-2.87.01-4.86-2.02-4.86-4.77m14.92-.16c1 0 1.56-.53 1.56-1.31v-.03c0-.88-.61-1.33-1.6-1.33h-2.03v2.67h2.07zm-4.11-4.51h4.25c1.18 0 2.1.33 2.71.94.52.52.8 1.25.8 2.12v.03c0 1.5-.81 2.44-1.99 2.88l2.02 2.95c.11.16-.01.37-.19.37h-1.94l-1.99-2.97h-1.61V18h-2.04V8.71zm16.91 4.67v-.03c0-1.59-1.17-2.92-2.81-2.92-1.65 0-2.79 1.3-2.79 2.89v.03c0 1.59 1.17 2.92 2.81 2.92 1.65 0 2.79-1.3 2.79-2.89m-7.73 0v-.03c0-2.64 2.08-4.8 4.95-4.8s4.92 2.14 4.92 4.78v.03c0 2.64-2.08 4.8-4.95 4.8-2.86 0-4.92-2.14-4.92-4.78m15.35.01c1.02 0 1.62-.61 1.62-1.41v-.03c0-.91-.64-1.41-1.66-1.41h-1.58v2.84h1.62zm-3.67-4.68h3.79c2.21 0 3.56 1.31 3.56 3.21v.03c0 2.15-1.67 3.26-3.76 3.26h-1.55V18h-2.04V8.71zm8.72 5.31V8.71h2.04v5.25c0 1.51.76 2.3 2 2.3s2-.76 2-2.23V8.71h2.04v5.24c0 2.81-1.58 4.19-4.07 4.19-2.49.01-4.01-1.39-4.01-4.12m14.17-.8c.99 0 1.56-.53 1.56-1.31v-.03c0-.88-.61-1.33-1.6-1.33h-2.03v2.67h2.07zm-4.12-4.51h4.24c1.18 0 2.1.33 2.71.94.52.52.8 1.25.8 2.12v.03c0 1.5-.81 2.44-1.99 2.88l2.02 2.95c.11.16 0 .37-.19.37h-1.94l-1.99-2.97h-1.61V18h-2.04V8.71z"/></svg>